<svg width="200" height="200" viewBox="0 0 200 200" fill="none" xmlns="http://www.w3.org/2000/svg">
  <!-- Background Circle -->
  <circle cx="100" cy="100" r="90" fill="url(#gradient1)" opacity="0.1"/>

  <!-- Brain/Neuron Structure -->
  <g id="neuron">
    <!-- Central Node -->
    <circle cx="100" cy="100" r="25" fill="url(#gradient2)" stroke="#0066FF" stroke-width="3"/>

    <!-- Neural Connections -->
    <path d="M 100 75 Q 70 60 50 50" stroke="url(#gradient3)" stroke-width="2" fill="none" stroke-linecap="round"/>
    <circle cx="50" cy="50" r="10" fill="#10B981"/>

    <path d="M 125 100 Q 140 90 150 80" stroke="url(#gradient3)" stroke-width="2" fill="none" stroke-linecap="round"/>
    <circle cx="150" cy="80" r="10" fill="#0066FF"/>

    <path d="M 100 125 Q 110 140 120 150" stroke="url(#gradient3)" stroke-width="2" fill="none" stroke-linecap="round"/>
    <circle cx="120" cy="150" r="10" fill="#F59E0B"/>

    <path d="M 75 100 Q 60 110 50 120" stroke="url(#gradient3)" stroke-width="2" fill="none" stroke-linecap="round"/>
    <circle cx="50" cy="120" r="10" fill="#10B981"/>

    <path d="M 115 85 Q 130 70 145 60" stroke="url(#gradient3)" stroke-width="2" fill="none" stroke-linecap="round"/>
    <circle cx="145" cy="60" r="8" fill="#0066FF"/>

    <path d="M 85 115 Q 70 130 60 145" stroke="url(#gradient3)" stroke-width="2" fill="none" stroke-linecap="round"/>
    <circle cx="60" cy="145" r="8" fill="#10B981"/>

    <!-- Lock Icon (Privacy Symbol) -->
    <g transform="translate(90, 90)">
      <rect x="5" y="12" width="10" height="8" rx="1" fill="white" opacity="0.9"/>
      <path d="M 7 12 V 9 A 3 3 0 0 1 13 9 V 12" stroke="white" stroke-width="1.5" fill="none" opacity="0.9"/>
    </g>
  </g>

  <!-- Gradients -->
  <defs>
    <linearGradient id="gradient1" x1="0%" y1="0%" x2="100%" y2="100%">
      <stop offset="0%" style="stop-color:#0066FF;stop-opacity:1" />
      <stop offset="100%" style="stop-color:#10B981;stop-opacity:1" />
    </linearGradient>

    <linearGradient id="gradient2" x1="0%" y1="0%" x2="100%" y2="100%">
      <stop offset="0%" style="stop-color:#0066FF;stop-opacity:0.8" />
      <stop offset="100%" style="stop-color:#10B981;stop-opacity:0.8" />
    </linearGradient>

    <linearGradient id="gradient3" x1="0%" y1="0%" x2="100%" y2="100%">
      <stop offset="0%" style="stop-color:#0066FF;stop-opacity:0.6" />
      <stop offset="100%" style="stop-color:#10B981;stop-opacity:0.6" />
    </linearGradient>
  </defs>
</svg>
